<?xml version="1.0" encoding="UTF-8"?>
<svg xmlns="http://www.w3.org/2000/svg" xmlns:xlink="http://www.w3.org/1999/xlink" viewBox="0 0 346.7 358.13">
  <defs>
    <style>
      .cls-1 {
        fill: none;
      }

      .cls-2 {
        fill: #74babd;
      }

      .cls-3 {
        fill: #74babd;
      }

      .cls-4 {
        fill: #2a6667;
      }

      .cls-5 {
        fill: #2a6667;
      }

      .cls-6 {
        fill: #172944;
      }

      .cls-7 {
        clip-path: url(#clippath-1);
      }

      .cls-8 {
        clip-path: url(#clippath-3);
      }

      .cls-9 {
        clip-path: url(#clippath-2);
      }

      .cls-10 {
        fill: #fff;
      }

      .cls-11 {
        fill: #0d061b;
      }

      .cls-12 {
        fill: #0d061b;
      }

      .cls-13 {
        fill: #990001;
      }

      .cls-14 {
        fill: #d9ebeb;
      }

      .cls-15 {
        fill: #d9ebeb;
      }

      .cls-16 {
        fill: #b7e8f4;
      }
    </style>
    <clipPath id="clippath-1">
      <path class="cls-1" d="M-455.39,183.28h228.1l50.04-59.63-158.17-273.95c-2.64-4.57-9.24-4.57-11.87,0L-505.45,123.63l50.06,59.65Z"/>
    </clipPath>
    <clipPath id="clippath-2">
      <path class="cls-1" d="M58.58,347.51h228.1l50.04-59.63L178.55,13.93c-2.64-4.57-9.24-4.57-11.88,0L8.52,287.86l50.06,59.65Z"/>
    </clipPath>
    <clipPath id="clippath-3">
      <polygon class="cls-16" points="160.26 90.23 170.4 103.84 156.34 111.37 145.17 96.39 160.26 90.23"/>
    </clipPath>
  </defs>
  <g id="Layer_5" data-name="Layer 5">
    <g class="cls-7">
      <rect class="cls-10" x="-410.31" y="178.79" width="529.4" height="301.95" transform="translate(-296.7 2.47) rotate(-48.6)"/>
    </g>
  </g>
  <g id="Layer_7" data-name="Layer 7">
    <g class="cls-9">
      <polygon class="cls-12" points="172.61 3.64 -25.92 347.51 371.14 347.51 172.61 3.64"/>
      <path class="cls-12" d="M172.61,11.03c2.44,0,4.89,1.21,6.29,3.63l157.82,273.35-50.04,59.63H58.58l-50.06-59.65L166.32,14.66c1.4-2.42,3.84-3.63,6.29-3.63M172.61.03c-6.6,0-12.51,3.41-15.81,9.13L-1.01,282.49l-3.85,6.67,4.95,5.9,50.06,59.65,3.3,3.93h238.36l3.3-3.93,50.04-59.63,4.95-5.9-3.85-6.67L188.42,9.16C185.12,3.45,179.21.03,172.61.03Z"/>
      <circle class="cls-6" cx="171.13" cy="375.03" r="216.22"/>
      <path class="cls-10" d="M81.96,298.38c-6.82,0-12.49-1.87-16.76-5.62-9.72-8.54-10.7-25.55-2.75-47.9,7.68-21.61,22.83-45.94,42.66-68.51,42.11-47.94,90.56-71.92,110.29-54.58h0c19.73,17.33,2.2,68.47-39.91,116.41-19.82,22.57-42,40.73-62.44,51.13-11.85,6.03-22.39,9.07-31.09,9.07ZM105.73,179.13c-19.41,22.1-63.92,81.9-37.24,109.87,7.31,7.67,23.37,5.48,42.28-4.15,19.89-10.13,41.53-27.87,60.95-49.98,38.92-44.3,51.93-92.43,37.72-108.21-18.52-20.58-72.51,16.95-103.72,52.47Z"/>
      <circle class="cls-10" cx="171.13" cy="396.23" r="195.03" transform="translate(-230.05 237.06) rotate(-45)"/>
      <path class="cls-14" d="M-32.18,411.66c0-109.84,87.75-204.79,204.79-204.79s204.79,91.69,204.79,204.79-91.69,204.79-204.79,204.79-204.79-91.69-204.79-204.79Z"/>
      <path class="cls-2" d="M-33.51,418.81c0-109.67,87.75-204.47,204.79-204.47s204.79,91.54,204.79,204.47-91.69,204.47-204.79,204.47-204.79-91.54-204.79-204.47Z"/>
      <path class="cls-6" d="M169.57,591.02c112.23,0,203.2-82.69,203.2-184.69s-90.98-184.69-203.2-184.69c-62.27,0-116.18,24.63-152.79,62.73-30.56,35.21-49.04,80.71-50.23,129.41,4.31,98.54,93.55,177.23,203.03,177.23Z"/>
      <path class="cls-4" d="M103.26,319.34c-1.14,1.31-2.35,2.8-2.32,4.54.04,2.31,2.34,4.04,4.61,4.37,2.27.33,4.56-.33,6.82-.72,8.55-1.48,17.69,1.04,24.3,6.7.85.73,1.7,1.53,2.78,1.79.66.16,1.36.11,2.02-.04,2.2-.5,4.14-2.1,5.04-4.19-2.8-.93-5.74-2.79-6.15-5.73-.32-2.28.99-4.74.04-6.83-.56-1.23-1.77-2.01-2.92-2.71-5.13-3.14-7.41-4.15-9.25-9.35-1.56-4.42.69-7.41-5.51-6.16-6.88,1.39-15.08,13.32-19.44,18.32Z"/>
      <path class="cls-4" d="M193.46,483.01c.03-3.26-2.7-6.32-5.92-6.64-2.49-.25-5.45.8-7.22-.97-.66-.66-.98-1.59-1.45-2.4-2.67-4.63-9.12-4.56-14.35-5.55-7.51-1.42-14.59-6.14-22.16-5.09-1.01.14-2.06.38-3.02.02-1.43-.54-2.09-2.26-2.07-3.8.02-1.54.55-3.03.72-4.56.76-6.75-5.2-12.2-10.81-15.97-1.92-1.29-3.9-2.55-6.09-3.3-2.48-.86-5.15-1.04-7.69-1.69-8.79-2.25-15.37-9.85-24-12.67-5.14-1.68-10.87-1.61-15.55-4.33-1.81-1.05-3.44-2.51-5.47-2.98-3.21-.75-6.55,1.27-8.39,4.03-1.84,2.76-3.02,5.64-3.64,8.9,1.31-3.03.62-6.83-1.68-9.19s-6.05-3.14-9.09-1.88c-.83.34-1.62.83-2.51.94-2.93.36-4.68-3.3-4.75-6.27-.08-3.35.8-6.72,2.5-9.6.54-.93,1.19-1.85,1.28-2.92.24-2.81-3.1-4.33-5.74-5.28-2.96-1.07-6.14-2.89-6.76-5.99-.84-4.17,3.26-7.42,6.27-10.41,1.32-1.31,2.57-2.95,2.5-4.82-.07-1.87-2.18-3.62-3.78-2.68-.8.47-1.18,1.4-1.65,2.21-2.61,4.49-8.4,5.68-13.51,6.42-.61.09-1.29.17-1.8-.18-.44-.3-.65-.83-.81-1.34-2.13-6.92.6-14.32,3.3-21.04,2.4-5.99,5.42-12.6,11.44-14.81,2.04-.75,4.24-.9,6.41-1.04,3.64-.24,7.39-.46,10.85.68,3.47,1.15,6.63,4.01,7.02,7.66.18,1.73-.25,3.45-.32,5.19-.11,2.94.89,5.91,2.76,8.17,1.69-6.5,2.43-13.52,1.6-20.18,3.05-4.35,7.52-7.68,12.55-9.34,1.69-.56,3.49-.96,4.9-2.05,2.41-1.86,3.05-5.19,4.54-7.86,1.5-2.67,3.89-4.69,6.27-6.6,7.19-5.77,14.75-11.07,22.63-15.84.86-.52,1.79-1.12,2.06-2.1.31-1.1-.35-2.25-.23-3.38.13-1.14,1.01-2.03,1.83-2.81,3.03-2.88,6.98-5.99,10.93-4.65,1.28.44,2.46,1.33,3.81,1.34,1.02,0,1.96-.51,2.84-1,1.72-.96,3.43-1.91,5.15-2.87,1.07-.6,2.27-1.38,2.39-2.61.08-.82-.37-1.6-.82-2.29-2.58-3.93-5.96-7.33-9.86-9.93-1.37-.92-2.97-1.98-3.11-3.63-.07-.78.22-1.53.29-2.31.29-3.29-3.54-5.71-6.8-5.25s-5.89,2.79-8.31,5.02c1.24,2.53.83,5.78-1,7.91s-4.96,3.02-7.63,2.15c-2.04,2.97-4.07,5.93-6.1,8.9-1.7-2.21-2.42-5.15-1.92-7.9.23-1.25.69-2.5.49-3.75-.31-1.98-2.52-3.43-4.45-2.92-1.25-5.92,1.73-12.49,6.99-15.41,2.77-1.54,5.97-2.1,9.09-2.64,3.32-.57,6.64-1.14,9.96-1.71,3.43-.59,7.31-1.55,9.99-3.79.38-2.75-3.63-3.94-6.19-2.9-2.56,1.04-6.49.99-9.24.85-3.2-.16-3.7-1.08-5.33-3.85-.67-1.15,1.35-5.26-.65-5.58-1.41-.22-23.18,6.06-35.17,12.7-11.49,6.36-34.47,16.61-41.52,27.76-2.78,4.4,3.17,9.41-.26,13.32-1.99,2.27-4.43,4.1-6.55,6.26-6.77,6.9-9.81,16.57-12.62,25.84,3.08,10.88-11.86,20.99-9.78,32.11,3.52-7.81,7.04-15.63,10.55-23.44-1.9,10.09-3.8,20.17-5.69,30.26-1.32,7.03-2.59,14.59.33,21.12,1.91,4.26,6.34,7.92,10.87,6.91.91-.2,1.79-.58,2.73-.62,2.69-.09,4.6,2.64,5.47,5.21.87,2.57,1.38,5.48,3.41,7.26,1.67,1.47,4.13,1.9,5.6,3.57,1.27,1.45,1.53,3.5,1.95,5.39,1.08,4.86,3.56,9.28,6,13.61.72,1.29,1.51,2.63,2.79,3.35,1.49.83,3.32.64,4.96,1.08,6.01,1.58,6.75,10.29,3.88,15.84-2.87,5.55-7.93,9.95-9.68,15.95-2.58,8.86,2.78,17.95,8.39,25.25,5.99,7.81,12.54,15.19,19.59,22.06,4.13,4.03,8.55,7.96,13.89,10.1,6.76,2.71,14.3,2.3,21.56,1.85,26.99-1.68,53.98-3.36,80.97-5.03,11.9-.74,25.58-2.47,32.09-12.54-6.87-5.79-16.45-11.4-25.26-13.01Z"/>
      <path class="cls-4" d="M238.79,238.9c-3.63-2.7-8.26-4.2-12.87-4.19-1.55,0-3.58.71-3.34,2.13.22,1.28,2.04,1.62,3.03,2.55,1.89,1.76.19,4.63.23,7.09.04,2.24,1.83,4.38,4.17,4.97.92,2.41,2.16,5.89,4.48,7.29,2.32,1.4,6.21.62,6.58-1.89,1.69,1.26,3.38,2.52,5.07,3.77,1.39-1.37,2.1-3.3,1.92-5.2,2.7-.07,5.24,1.98,5.78,4.44.54,2.46-.81,5.08-3.07,6.42-2.75,1.63-6.4,1.42-9.3,2.84s-3.98,6.24-.79,7.06c-1.13,1.41-3.16,2.16-5.05,1.85.88,2.84,4.18,4.34,6.22,6.62,2.04,2.28,1.45,7.01-1.7,6.62-3.2-2.28-7.9-2.52-11.26-.59,1.85,3.62,3,7.53,5.01,11.08,2.01,3.55,5.16,6.86,9.33,7.86,4.17,1.01,9.29-1.17,9.95-5.09-2.52-1.86-1.88-6.19,1.08-7.26-.94-1.36-1.88-2.72-2.82-4.08,2.22.37,4.6-.58,5.8-2.31.53-.76.96-1.75,1.92-1.97.63-.15,1.3.11,1.89.37,6.94,3.05,12.89,8.07,16.82,14.2,1.62-.19.68-2.49-.38-3.67s-.43-3.88.86-2.93c-5.44-.67-10.31-4.57-11.83-9.47,7.51,4.49,14.28,10.06,19.99,16.43,1.57-2.94-.76-7.07-4.29-7.6,2.08-5.63,1.12-12.2-2.52-17.21,6.23,2.23,11.87,5.92,16.24,10.63-2.76.14-5.57-.21-8.21-1.04-1.32,3.2-1.61,7.1.61,9.91,2.22,2.81,7.52,3.42,9.45.51,4.74,4.94,7,11.84,5.99,18.31-4.2.72-8.73-.16-12.31-2.4-.45,2.22.07,4.61,1.42,6.52-7.02-2.83-14.03-5.65-21.05-8.48.24-4.59-6.09-7.27-10.98-6.54-6.92,1.03-12.37,5.9-16.41,11.17s-7.16,11.17-11.93,15.88c-2.63,2.6-5.74,4.8-8.03,7.66-2.3,2.86-3.71,6.69-2.34,10.08.53,1.32,1.45,2.49,2,3.8,1.08,2.53.73,5.34.63,8.04-.44,12.93,7.12,27.15,20.53,31.01,4.94,1.42,10.18,1.36,15.32,1.27,1.64-.03,3.43-.1,4.63-1.12.9-.76,1.33-1.95,2.34-2.57,2.66-1.63,5.65,1.82,8.75,2.69,2.27.64,4.68-.2,7.04-.01,2.35.19,4.9,2.55,3.57,4.33-3.58,4.75-2.66,12.53-.72,18.12.65,1.87,1.63,3.67,1.77,5.62.2,2.69-1.22,5.2-2.46,7.62-5.3,10.36-7.87,21.96-7.42,33.51,17.31-1.06,32.46-11.77,41.78-25.18s13.63-29.32,16.84-45.08c3.69-18.11,6.12-36.45,7.28-54.89-4.78,3.33-6.16,8.73-8.57,13.81-2.23,4.72-4.46,9.44-6.7,14.16-9.22-12.84-15.75-27.3-19.12-42.32,9.29,7.55,8.2,22.33,17.77,29.57,3.01-8.84,2.45-18.51.23-27.64-1.53-6.29,26.41-2.33,22.88-7.92-4.28-6.78-24.53-36.16-31-41.15-24.29-18.75-40.64-32.52-74.11-43.7-2.55-.85-6.88-2.33-8.73-.57-1.71,1.64,1.8,2.98,3.19,4.91,1.4,1.93,1.99,5.29-.41,5.86-.71-1.36.55-3.57-.72-4.52Z"/>
      <path class="cls-10" d="M187.09,72.52l4.97-1.33-4.97-1.33c-.66-.18-1.17-.71-1.32-1.38l-1.46-6.51-1.46,6.51c-.15.67-.66,1.2-1.33,1.38l-4.97,1.33,4.97,1.33c.66.18,1.17.71,1.32,1.38l1.46,6.51,1.46-6.51c.15-.67.66-1.2,1.32-1.38Z"/>
      <path class="cls-10" d="M125.65,194.09l4.21-1.12c.35-.09.35-.59,0-.68l-4.21-1.12c-.73-.2-1.3-.78-1.46-1.52l-1.27-5.65c-.08-.37-.61-.37-.69,0l-1.27,5.65c-.17.74-.73,1.33-1.46,1.52l-4.21,1.12c-.35.09-.35.59,0,.68l4.21,1.12c.73.2,1.3.78,1.46,1.52l1.27,5.65c.08.37.61.37.69,0l1.27-5.65c.17-.74.73-1.33,1.46-1.52Z"/>
      <path class="cls-10" d="M200.05,97.76c0,1.03-.83,1.86-1.86,1.86s-1.86-.83-1.86-1.86.83-1.86,1.86-1.86,1.86.83,1.86,1.86Z"/>
      <path class="cls-10" d="M153.56,182.44c0,1.03-.83,1.86-1.86,1.86s-1.86-.83-1.86-1.86.83-1.86,1.86-1.86,1.86.83,1.86,1.86Z"/>
      <polygon class="cls-12" points="162.13 37.72 172.62 19.47 184.44 40.68 162.13 37.72"/>
      <rect class="cls-10" x="103.66" y="343.02" width="529.4" height="301.95" transform="translate(-245.8 443.66) rotate(-48.6)"/>
      <rect class="cls-10" x="-116.83" y="285.28" width="209.11" height="301.95" transform="translate(-287.59 97.62) rotate(-40.72)"/>
      <polygon class="cls-14" points="241.83 181.23 280.23 184.25 268.18 218.75 226.85 213.39 241.83 181.23"/>
      <polygon class="cls-2" points="226.89 213.39 261.88 217.93 243.7 181.38 241.84 181.23 226.89 213.39"/>
      <polygon class="cls-4" points="226.85 213.39 211.43 247.01 172.72 240.38 191.36 208.02 226.85 213.39"/>
      <polygon class="cls-12" points="191.36 208.02 187.7 242.95 211.43 247.01 226.85 213.39 191.36 208.02"/>
      <polygon class="cls-14" points="196.03 141.01 236.6 144.65 218.09 180.21 172.72 174.37 196.03 141.01"/>
      <polygon class="cls-10" points="195.8 138.51 172.72 174.37 197.55 144.26 235.13 147.44 237.47 143.1 195.8 138.51"/>
      <polyline class="cls-12" points="218.08 179.9 236.6 144.65 241.83 181.23 226.85 213.39 218.08 179.9"/>
      <polygon class="cls-4" points="172.72 174.37 191.36 208.02 226.85 213.39 218.09 180.21 172.72 174.37"/>
    </g>
    <path class="cls-11" d="M283.16,358.01H63.51c-5.8,0-11.26-2.55-14.99-6.99L3.98,297.94c-4.5-5.37-5.17-13.04-1.67-19.11L158.29,8.68c3.14-5.43,8.75-8.68,15.03-8.68s11.89,3.25,15.03,8.68l155.99,270.18c3.5,6.06,2.83,13.74-1.67,19.11l-44.52,53.06c-3.73,4.44-9.19,6.99-14.99,6.99ZM173.32,5c-4.47,0-8.47,2.31-10.7,6.18L6.64,281.34c-2.45,4.25-1.98,9.63,1.17,13.39l44.54,53.08c2.78,3.31,6.84,5.2,11.16,5.2h219.64c4.32,0,8.38-1.9,11.16-5.2l44.52-53.06c3.16-3.76,3.63-9.14,1.17-13.39L184.02,11.18c-2.23-3.87-6.23-6.18-10.7-6.18ZM284.82,342.01H61.85l-45.93-54.74L173.32,14.64l157.41,272.65-45.91,54.72ZM64.18,337.01h218.31l42.17-50.25L173.32,24.64,22,286.74l42.18,50.27Z"/>
    <path class="cls-13" d="M283.16,355.51H63.51c-5.04,0-9.83-2.23-13.07-6.1l-44.54-53.08c-3.84-4.58-4.41-11.07-1.42-16.25L160.46,9.93c2.68-4.65,7.49-7.43,12.87-7.43s10.18,2.78,12.87,7.43l155.99,270.18c2.99,5.18,2.42,11.67-1.42,16.25l-44.52,53.06c-3.24,3.86-8.03,6.1-13.07,6.1ZM63.02,339.51h220.64l44.04-52.48L173.32,19.64,18.96,287.01l44.06,52.51Z"/>
    <g>
      <g>
        <polygon class="cls-16" points="160.26 90.23 170.4 103.84 156.34 111.37 145.17 96.39 160.26 90.23"/>
        <g class="cls-8">
          <polygon class="cls-3" points="153.76 112.03 160.26 90.23 142.03 96.99 153.76 112.03"/>
        </g>
      </g>
      <polygon class="cls-3" points="145.17 96.39 129.63 102.36 120.06 87.4 135.8 83.27 145.17 96.39"/>
      <polygon class="cls-15" points="157.5 61.87 169.46 76.53 152.4 82.64 140.12 66.2 157.5 61.87"/>
      <polyline class="cls-11" points="152.49 82.53 169.46 76.53 160.26 90.23 145.17 96.39 152.49 82.53"/>
      <polygon class="cls-5" points="140.12 66.2 135.8 83.27 145.17 96.39 152.4 82.64 140.12 66.2"/>
      <polygon class="cls-15" points="166.32 77.64 160.26 90.23 169.46 76.53 166.32 77.64"/>
    </g>
    <g>
      <path class="cls-10" d="M47.01,212.93l.86-1.5,9.83,1.51-.87,1.51-2.57-.46-1.84,3.21,1.7,1.98-.83,1.46-6.29-7.7ZM51.58,216.2l1.41-2.46-4.15-.77-.02.03,2.77,3.2Z"/>
      <path class="cls-10" d="M50.41,206.99l2.24-3.91c.41-.72.91-1.21,1.49-1.45.58-.25,1.21-.18,1.88.2.41.23.7.53.87.9s.24.78.18,1.24h.02c.39-.42.84-.67,1.35-.71.51-.05,1.04.09,1.59.4.32.18.58.41.79.68s.35.58.41.94c.06.36.04.75-.06,1.2-.1.44-.3.92-.59,1.44l-2.12,3.7-8.06-4.61ZM54.59,207.51l1.32-2.3c.19-.34.26-.68.2-1.01-.06-.34-.27-.61-.63-.81-.41-.23-.75-.29-1.03-.19-.28.11-.53.35-.75.74l-1.32,2.3,2.22,1.27ZM58.12,209.53l1.43-2.49c.25-.43.32-.82.24-1.19-.09-.36-.33-.66-.74-.89-.4-.23-.77-.28-1.12-.17s-.65.38-.89.81l-1.43,2.49,2.52,1.44Z"/>
      <path class="cls-10" d="M61.18,200.63c.31.18.6.28.88.29.28.02.54-.02.79-.13.25-.11.47-.27.67-.47.21-.21.39-.45.55-.74.18-.31.29-.59.34-.85.05-.26.06-.49.03-.69s-.11-.37-.22-.52c-.11-.14-.24-.26-.39-.35-.31-.18-.58-.24-.8-.18-.23.05-.42.15-.57.28-.27.23-.56.5-.87.83-.31.33-.7.72-1.17,1.19-.29.29-.57.52-.85.66-.28.15-.55.23-.8.27-.26.03-.5.02-.74-.04-.24-.06-.46-.15-.67-.27-.41-.23-.71-.52-.91-.86-.2-.34-.32-.7-.36-1.09-.04-.39,0-.79.11-1.2.11-.41.27-.79.47-1.15.24-.42.52-.79.85-1.1.32-.31.67-.54,1.05-.7.38-.16.78-.23,1.19-.21.41.02.83.15,1.25.39l-.81,1.41c-.54-.26-1.01-.29-1.4-.1-.4.19-.73.54-1.01,1.02-.09.17-.17.34-.24.54-.07.19-.1.38-.1.57,0,.19.04.37.12.54.08.17.22.31.43.43.29.16.56.2.82.12.26-.08.52-.25.76-.48.02-.03.12-.12.3-.3s.37-.37.58-.59c.21-.22.42-.43.63-.64.2-.21.35-.36.44-.44.23-.22.48-.38.73-.5.25-.11.51-.18.77-.21.26-.03.51,0,.76.05.25.06.48.15.69.27.45.26.79.57,1,.94s.34.76.37,1.18-.02.84-.14,1.28-.3.86-.53,1.25c-.26.46-.57.86-.91,1.2-.34.34-.72.6-1.13.76-.41.17-.84.24-1.31.21-.47-.03-.95-.18-1.45-.46l.81-1.41Z"/>
      <path class="cls-10" d="M59.35,191.38l3.73-6.52,1.22.7-1.47,2.56,6.84,3.91-.81,1.41-6.84-3.91-1.46,2.55-1.22-.7Z"/>
      <path class="cls-10" d="M63.94,183.36l2.2-3.85c.51-.89,1.08-1.44,1.72-1.67.64-.22,1.3-.14,1.98.25.38.22.67.46.86.71s.31.5.38.74c.07.24.09.45.08.64-.02.19-.03.32-.05.4h.02c.08-.1.2-.21.34-.31.14-.1.31-.18.51-.22.2-.04.43-.05.68,0,.26.04.54.15.86.33.47.27.93.48,1.35.63.43.15.77.2,1.02.14l-.87,1.51c-.23,0-.46-.04-.68-.14-.22-.1-.43-.21-.63-.32-.37-.21-.7-.37-.99-.48-.29-.11-.56-.15-.81-.13-.24.02-.47.11-.67.27-.2.16-.39.4-.58.72l-1.19,2.08,3.32,1.9-.81,1.41-8.06-4.61ZM68.41,184.04l1.32-2.31c.26-.45.35-.86.27-1.21s-.33-.66-.76-.9c-.26-.15-.49-.23-.69-.25-.2-.02-.39.02-.56.09-.17.08-.31.2-.44.35s-.24.32-.34.5l-1.31,2.29,2.52,1.44Z"/>
      <path class="cls-10" d="M70.04,172.69l.86-1.5,9.83,1.51-.87,1.51-2.56-.46-1.84,3.22,1.7,1.98-.83,1.46-6.29-7.7ZM74.61,175.97l1.41-2.46-4.15-.78-.02.04,2.77,3.2Z"/>
      <path class="cls-10" d="M79.11,162.79c-.27-.07-.53-.11-.79-.12-.26,0-.5.03-.74.12-.24.08-.46.21-.67.39-.21.18-.39.41-.56.71-.25.43-.37.85-.38,1.26,0,.41.08.8.26,1.16.18.36.42.7.74,1,.32.3.66.57,1.05.79.38.22.79.39,1.21.5.42.12.83.16,1.24.13.4-.03.78-.15,1.13-.36.35-.21.65-.53.9-.96.18-.31.29-.62.31-.93.03-.3,0-.6-.09-.88-.09-.28-.24-.55-.44-.79-.2-.24-.44-.47-.71-.66l.79-1.38c.46.31.84.66,1.14,1.07.3.4.5.84.62,1.31.12.47.14.95.06,1.45s-.25.99-.53,1.48c-.35.6-.77,1.08-1.26,1.43-.5.35-1.03.58-1.6.69-.57.11-1.17.11-1.78,0-.61-.12-1.21-.34-1.79-.67-.57-.33-1.06-.73-1.47-1.2-.41-.47-.71-.98-.91-1.53-.19-.55-.27-1.13-.22-1.74.05-.61.24-1.21.59-1.81.26-.45.56-.84.92-1.17.35-.33.73-.58,1.14-.74.41-.17.84-.25,1.29-.25.45,0,.9.11,1.36.32l-.81,1.41Z"/>
      <path class="cls-10" d="M77.98,158.82l3.73-6.52,1.22.7-1.47,2.56,6.84,3.91-.81,1.41-6.84-3.91-1.46,2.55-1.22-.7Z"/>
      <path class="cls-10" d="M96.77,144.68l-.52.9-1.07-.33c.21.62.29,1.17.25,1.64-.05.47-.21.95-.5,1.44-.34.6-.76,1.08-1.26,1.43-.5.35-1.03.58-1.6.69s-1.17.11-1.78,0c-.61-.12-1.21-.34-1.79-.67-.57-.33-1.06-.73-1.47-1.2-.41-.47-.71-.98-.91-1.53-.2-.55-.27-1.13-.22-1.74.05-.61.24-1.21.59-1.81.25-.44.55-.82.89-1.15.34-.33.72-.58,1.12-.76.4-.18.84-.27,1.3-.27.46,0,.94.1,1.42.3l-.79,1.38c-.29-.11-.56-.16-.83-.15-.27,0-.53.07-.77.18-.24.11-.47.26-.67.46-.2.2-.38.42-.52.68-.25.43-.37.85-.38,1.26,0,.41.08.8.26,1.16s.42.69.74,1c.31.31.66.57,1.05.79.38.22.79.39,1.21.5.42.12.83.16,1.23.13.4-.03.78-.15,1.13-.37.35-.21.65-.53.89-.96.21-.36.35-.7.41-1.04.06-.34.04-.66-.04-.96-.08-.3-.24-.58-.46-.84-.22-.26-.5-.49-.84-.69l-1.23,2.14-1.07-.61,1.96-3.43,4.24,2.43Z"/>
      <path class="cls-10" d="M89.92,137.97l2.2-3.85c.51-.89,1.08-1.44,1.72-1.67.64-.22,1.3-.14,1.98.25.38.22.67.46.86.71.19.26.32.5.38.74.07.24.09.45.08.64-.02.19-.03.32-.05.4h.02c.08-.1.2-.21.34-.31.14-.1.31-.18.51-.22.2-.04.43-.05.69,0,.26.04.54.15.86.33.47.27.93.48,1.35.63.43.15.77.2,1.02.14l-.87,1.51c-.23,0-.46-.04-.68-.14-.22-.1-.43-.21-.63-.32-.37-.21-.7-.37-.99-.48-.29-.11-.56-.15-.81-.13-.25.02-.47.11-.67.27s-.39.4-.58.72l-1.19,2.08,3.32,1.9-.81,1.41-8.06-4.61ZM94.39,138.65l1.32-2.31c.26-.45.35-.85.27-1.21-.08-.36-.33-.66-.76-.9-.26-.15-.49-.23-.69-.25-.2-.02-.39.01-.56.09-.17.08-.31.2-.44.35s-.24.32-.35.5l-1.31,2.29,2.52,1.44Z"/>
      <path class="cls-10" d="M96.56,125.92c.34-.6.77-1.08,1.26-1.43.5-.35,1.03-.58,1.61-.69.57-.11,1.17-.11,1.78,0,.61.12,1.2.34,1.78.66.58.33,1.07.73,1.48,1.2.41.47.71.98.91,1.53.19.55.27,1.13.21,1.73-.05.6-.25,1.21-.59,1.81-.34.6-.76,1.08-1.26,1.43-.5.35-1.03.58-1.6.69-.57.11-1.17.11-1.78,0-.61-.12-1.21-.34-1.79-.67-.57-.33-1.06-.73-1.47-1.2-.41-.47-.71-.98-.91-1.53-.19-.55-.27-1.13-.22-1.74.05-.61.24-1.21.59-1.81ZM97.71,126.58c-.25.43-.37.85-.38,1.26,0,.41.08.8.26,1.16s.42.69.74,1,.66.57,1.05.79c.38.22.79.39,1.21.51.42.12.83.16,1.24.13.4-.03.78-.15,1.13-.36.35-.21.65-.54.9-.96.25-.43.37-.85.38-1.26,0-.41-.08-.8-.26-1.16s-.42-.7-.74-1-.66-.57-1.05-.79c-.38-.22-.79-.39-1.21-.51-.42-.12-.83-.16-1.24-.13-.4.03-.78.15-1.13.36-.35.21-.65.54-.9.96Z"/>
      <path class="cls-10" d="M99.97,120.41l.81-1.41,4.69,2.69c.27.16.55.3.85.43s.59.2.88.21c.29,0,.58-.08.87-.25.29-.17.56-.48.82-.94.26-.46.39-.86.4-1.19,0-.33-.07-.62-.22-.88s-.36-.47-.62-.65c-.26-.19-.53-.36-.8-.51l-4.69-2.69.81-1.41,5.16,2.95c.52.3.93.63,1.22,1.01.29.38.49.79.58,1.22.09.44.09.9-.02,1.38-.1.48-.3.97-.58,1.46-.29.5-.61.91-.97,1.24-.36.33-.75.57-1.18.71s-.88.18-1.35.12c-.47-.06-.97-.24-1.49-.54l-5.16-2.95Z"/>
      <path class="cls-10" d="M105.01,111.61l2.03-3.55c.33-.57.68-.99,1.05-1.26.37-.27.74-.43,1.1-.48.36-.05.71-.03,1.04.06s.62.21.87.36c.25.14.5.33.75.57.25.24.44.52.58.86.14.34.18.73.14,1.19-.04.45-.23.97-.56,1.54l-1.23,2.14,3.09,1.77-.81,1.41-8.06-4.61ZM109.63,112.38l1.18-2.06c.09-.16.16-.33.21-.52.05-.19.06-.38.04-.58-.02-.2-.09-.39-.21-.57-.12-.18-.31-.35-.56-.49-.26-.15-.5-.24-.72-.26-.22-.02-.41,0-.59.07-.17.07-.33.18-.46.32s-.25.31-.36.5l-1.2,2.09,2.66,1.52Z"/>
    </g>
    <g>
      <path class="cls-10" d="M216.36,69.1l2.22,3.84c.51.88.7,1.66.58,2.32-.13.66-.53,1.19-1.21,1.59-.38.22-.73.35-1.05.38-.32.03-.6.02-.84-.04-.24-.06-.44-.14-.59-.25s-.26-.19-.32-.24h-.02c.05.14.09.29.11.46s0,.36-.06.55-.17.39-.34.59c-.17.2-.4.39-.72.57-.47.27-.88.56-1.23.85-.34.29-.56.57-.64.81l-.87-1.51c.11-.21.27-.38.47-.52.2-.14.4-.27.59-.38.37-.21.67-.42.91-.62.24-.2.41-.41.52-.63.11-.22.14-.46.11-.71-.04-.26-.15-.54-.33-.87l-1.2-2.07-3.31,1.91-.81-1.41,8.04-4.64ZM213.51,72.62l1.33,2.31c.26.45.56.73.91.84s.74.04,1.16-.21c.26-.15.44-.3.56-.47.12-.17.18-.34.2-.53s-.01-.37-.08-.55c-.07-.19-.15-.37-.26-.55l-1.32-2.29-2.51,1.45Z"/>
      <path class="cls-10" d="M223.27,80.62c.35.6.54,1.2.59,1.81.05.61-.02,1.18-.21,1.74-.19.55-.49,1.06-.9,1.53s-.9.87-1.47,1.2c-.58.33-1.17.56-1.79.68-.61.12-1.21.12-1.78.01-.57-.11-1.11-.34-1.6-.69-.5-.35-.92-.82-1.26-1.42-.35-.6-.55-1.2-.6-1.81-.05-.6.02-1.18.21-1.73s.49-1.06.9-1.53c.41-.47.9-.87,1.48-1.21.57-.33,1.16-.55,1.77-.67.61-.12,1.21-.12,1.78-.01s1.11.34,1.61.68c.5.35.92.82,1.27,1.42ZM222.12,81.28c-.25-.43-.55-.75-.9-.96-.35-.21-.73-.33-1.13-.36-.4-.03-.81.02-1.23.13-.42.12-.82.29-1.21.51s-.73.48-1.04.79c-.31.31-.56.64-.74,1-.18.36-.26.75-.25,1.16,0,.41.13.83.38,1.26s.55.75.9.96c.35.21.73.33,1.13.36.4.03.81-.02,1.24-.13s.82-.29,1.21-.51.73-.48,1.04-.79c.31-.3.56-.64.73-1,.18-.36.26-.75.25-1.16,0-.41-.13-.83-.38-1.26Z"/>
      <path class="cls-10" d="M226.2,86.15l2.25,3.91c.42.72.58,1.39.5,2.02-.08.63-.45,1.13-1.12,1.52-.41.23-.81.33-1.21.3s-.79-.19-1.16-.46h-.02c.18.57.16,1.08-.05,1.54s-.6.86-1.15,1.17c-.32.18-.64.3-.98.34-.34.04-.68,0-1.01-.12-.34-.12-.67-.34-1.01-.65s-.65-.72-.95-1.24l-2.13-3.69,8.04-4.64ZM220.12,91.53l1.44,2.49c.25.43.55.7.91.8.36.11.74.04,1.14-.19.4-.23.63-.53.71-.88.08-.36,0-.75-.25-1.18l-1.44-2.49-2.51,1.45ZM223.65,89.5l1.33,2.29c.2.34.45.56.78.68.32.11.66.07,1.02-.14.41-.23.63-.5.68-.8.05-.3-.04-.64-.26-1.02l-1.33-2.29-2.22,1.28Z"/>
      <path class="cls-10" d="M233.11,97.67c.35.6.54,1.2.59,1.81.05.61-.02,1.19-.21,1.74-.19.55-.49,1.06-.9,1.53-.41.47-.9.87-1.47,1.2-.58.33-1.17.56-1.79.68-.61.12-1.2.12-1.78.02-.57-.11-1.11-.34-1.61-.69-.5-.35-.92-.82-1.26-1.42-.35-.6-.55-1.2-.6-1.81-.05-.6.02-1.18.21-1.73.19-.55.49-1.06.9-1.53.41-.47.9-.87,1.48-1.21.57-.33,1.16-.55,1.77-.67.61-.12,1.21-.12,1.78-.01.57.11,1.11.34,1.61.68.5.35.92.82,1.27,1.42ZM231.96,98.33c-.25-.43-.55-.75-.9-.96-.35-.21-.73-.33-1.13-.36-.4-.03-.81.02-1.24.13-.42.12-.83.29-1.21.51-.38.22-.73.48-1.04.79-.31.31-.56.64-.73,1-.18.36-.26.75-.25,1.16,0,.41.13.83.38,1.26.25.43.54.75.9.96.35.21.73.33,1.13.36.4.03.81-.02,1.24-.13.42-.12.83-.29,1.21-.51.38-.22.73-.48,1.05-.79.31-.31.56-.64.73-1,.18-.36.26-.75.25-1.16,0-.41-.13-.83-.38-1.26Z"/>
      <path class="cls-10" d="M235.6,102.42l3.76,6.51-1.22.7-1.48-2.56-6.82,3.94-.81-1.41,6.82-3.94-1.47-2.54,1.22-.7Z"/>
      <path class="cls-10" d="M240.06,110.15l.81,1.41-8.04,4.64-.81-1.41,8.04-4.64Z"/>
      <path class="cls-10" d="M242.61,120.46c.2-.2.36-.4.5-.62s.23-.45.27-.7c.05-.25.05-.51,0-.77-.05-.27-.16-.55-.33-.84-.25-.43-.55-.75-.9-.96-.35-.21-.73-.33-1.13-.36-.4-.03-.81.02-1.24.13-.42.12-.82.29-1.21.51-.38.22-.73.48-1.04.79-.31.31-.56.64-.73,1-.18.36-.26.75-.25,1.16,0,.41.13.83.38,1.26.18.31.4.56.64.74s.52.3.81.36.59.07.9.02.62-.14.93-.28l.79,1.37c-.5.25-1,.4-1.5.45-.5.05-.98.01-1.44-.12-.46-.13-.89-.36-1.28-.67s-.73-.72-1.01-1.2c-.35-.6-.55-1.2-.6-1.81-.05-.61.02-1.18.21-1.73.19-.55.49-1.06.9-1.53s.9-.87,1.48-1.21c.57-.33,1.16-.55,1.77-.67.61-.12,1.21-.12,1.78-.01s1.11.34,1.61.68c.5.35.92.82,1.27,1.42.26.45.44.91.55,1.38.11.47.13.92.07,1.36-.06.44-.21.85-.43,1.24-.23.38-.55.72-.96,1.02l-.81-1.41Z"/>
      <path class="cls-10" d="M248.86,125.38l3.34,5.79-1.22.7-2.53-4.38-2.11,1.21,2.34,4.05-1.15.66-2.34-4.05-2.35,1.36,2.57,4.46-1.22.7-3.39-5.87,8.04-4.64Z"/>
      <path class="cls-10" d="M252.71,132.06l.97,1.68-1.79,3.46,3.94.27.91,1.58-5.41-.42-2.52,5.25-.99-1.71,1.92-3.78-4.25-.26-.93-1.61,5.81.44,2.34-4.89Z"/>
      <path class="cls-10" d="M257.49,140.33l2.05,3.55c.33.57.51,1.08.56,1.54.04.46,0,.85-.14,1.19-.14.34-.33.63-.58.87-.25.24-.5.43-.75.58-.25.14-.54.26-.87.36s-.68.12-1.04.06c-.36-.05-.72-.21-1.09-.48s-.72-.69-1.05-1.26l-1.23-2.14-3.08,1.78-.81-1.41,8.04-4.64ZM254.49,143.93l1.19,2.06c.09.16.21.31.35.45.14.14.3.25.48.33s.38.12.6.11.46-.09.71-.24c.26-.15.46-.31.59-.49.13-.17.21-.36.24-.54s.01-.37-.05-.56c-.06-.19-.14-.38-.25-.56l-1.2-2.08-2.66,1.53Z"/>
      <path class="cls-10" d="M261.98,148.12l.81,1.41-6.82,3.94,2.36,4.09-1.22.7-3.17-5.49,8.04-4.64Z"/>
      <path class="cls-10" d="M268.05,158.18c.35.6.54,1.2.59,1.81.05.61-.02,1.19-.21,1.74-.19.55-.49,1.06-.9,1.53-.41.47-.9.87-1.47,1.2-.58.33-1.17.56-1.79.68-.61.12-1.2.12-1.78.01s-1.11-.34-1.61-.69c-.5-.35-.92-.82-1.26-1.42-.35-.6-.55-1.2-.6-1.81-.05-.6.02-1.18.21-1.73.19-.55.49-1.06.9-1.53.41-.47.9-.87,1.48-1.21.57-.33,1.16-.55,1.77-.67.61-.12,1.21-.12,1.78-.01.57.11,1.11.34,1.61.68.5.35.92.82,1.27,1.42ZM266.9,158.84c-.25-.43-.55-.75-.9-.96-.35-.21-.73-.33-1.13-.36-.4-.03-.81.02-1.24.13-.42.12-.83.29-1.21.51-.38.22-.73.48-1.04.79-.31.31-.56.64-.73,1-.18.36-.26.75-.25,1.16,0,.41.13.83.38,1.26.25.43.54.75.9.96.35.21.73.33,1.13.36.4.03.81-.02,1.24-.13.42-.12.83-.29,1.21-.51.38-.22.73-.48,1.05-.79.31-.31.56-.64.73-1,.18-.36.26-.75.25-1.16s-.13-.83-.38-1.26Z"/>
      <path class="cls-10" d="M270.98,163.7l2.22,3.84c.51.88.7,1.66.58,2.32-.13.66-.53,1.19-1.21,1.59-.38.22-.73.35-1.05.38-.32.03-.6.02-.84-.04-.24-.06-.44-.15-.59-.25-.15-.11-.26-.19-.32-.24h-.02c.05.14.09.29.11.47s0,.36-.06.55c-.06.2-.17.39-.34.59-.17.2-.4.39-.72.57-.47.27-.88.56-1.23.85-.34.29-.56.56-.64.81l-.87-1.51c.11-.2.27-.38.47-.52.2-.14.4-.27.59-.38.37-.21.67-.42.91-.62.24-.2.41-.41.52-.63.11-.22.14-.46.11-.71s-.15-.54-.33-.87l-1.2-2.07-3.31,1.91-.81-1.41,8.04-4.64ZM268.13,167.22l1.33,2.31c.26.45.56.73.91.84.35.11.74.04,1.16-.21.26-.15.44-.31.56-.47.12-.17.18-.35.2-.53.01-.18-.01-.37-.08-.55-.07-.19-.15-.37-.26-.55l-1.32-2.29-2.51,1.45Z"/>
      <path class="cls-10" d="M276.96,174.06l.86,1.5-6.25,7.74-.87-1.51,1.69-1.98-1.85-3.21-2.56.47-.84-1.45,9.82-1.56ZM271.83,176.36l1.42,2.46,2.76-3.2-.02-.03-4.16.78Z"/>
      <path class="cls-10" d="M279.18,177.9l3.76,6.51-1.22.7-1.48-2.55-6.82,3.94-.81-1.41,6.82-3.94-1.47-2.54,1.22-.7Z"/>
      <path class="cls-10" d="M283.64,185.62l.81,1.41-8.04,4.64-.81-1.41,8.04-4.64Z"/>
      <path class="cls-10" d="M287.77,192.35c.35.6.54,1.2.59,1.81.05.61-.02,1.19-.21,1.74-.19.55-.49,1.06-.9,1.53s-.9.87-1.47,1.2c-.58.33-1.17.56-1.79.68-.61.12-1.21.12-1.78.01s-1.11-.34-1.6-.69c-.5-.35-.92-.82-1.26-1.42-.35-.6-.55-1.2-.6-1.81s.02-1.18.21-1.73c.19-.55.49-1.06.9-1.53.41-.47.9-.87,1.48-1.21.57-.33,1.16-.55,1.77-.67.61-.12,1.21-.12,1.78-.02.57.11,1.11.34,1.61.68.5.35.92.82,1.27,1.42ZM286.62,193.01c-.25-.43-.55-.75-.9-.96-.35-.21-.73-.33-1.13-.36-.4-.03-.81.02-1.23.13-.42.12-.82.29-1.21.51s-.73.48-1.04.79c-.31.3-.56.64-.74,1-.18.36-.26.75-.25,1.16,0,.41.13.83.38,1.26s.55.75.9.96c.35.21.73.33,1.13.36.4.03.81-.02,1.24-.13.42-.12.82-.29,1.21-.51s.73-.48,1.04-.79c.31-.31.56-.64.73-1,.18-.36.26-.75.25-1.16,0-.41-.13-.83-.38-1.26Z"/>
      <path class="cls-10" d="M290.68,197.82l.86,1.49-3.8,7.09v.02s5.94-3.42,5.94-3.42l.77,1.34-8.04,4.64-.86-1.49,3.8-7.07-.02-.03-5.91,3.41-.77-1.34,8.04-4.64Z"/>
      <path class="cls-10" d="M297.53,209.69l.81,1.41-6.82,3.94,2.36,4.09-1.22.7-3.17-5.49,8.04-4.64Z"/>
      <path class="cls-10" d="M302.67,218.59l.87,1.5-6.25,7.74-.87-1.51,1.69-1.98-1.85-3.21-2.56.47-.84-1.45,9.82-1.56ZM297.54,220.89l1.42,2.45,2.76-3.2-.02-.04-4.16.78Z"/>
      <path class="cls-10" d="M305.92,224.23l2.25,3.91c.42.72.58,1.39.51,2.02-.08.63-.45,1.13-1.12,1.52-.41.23-.81.34-1.21.3-.4-.03-.79-.19-1.16-.46h-.02c.18.57.16,1.08-.05,1.54-.22.47-.6.86-1.15,1.17-.32.18-.64.29-.98.34-.34.05-.68,0-1.01-.12-.34-.12-.67-.34-1.01-.65s-.65-.72-.95-1.24l-2.13-3.69,8.04-4.64ZM299.85,229.61l1.44,2.49c.25.43.55.7.91.8.36.11.74.05,1.14-.19.4-.23.63-.53.71-.88.08-.36,0-.75-.25-1.18l-1.44-2.49-2.51,1.45ZM303.37,227.58l1.33,2.3c.2.34.45.56.78.68s.66.07,1.02-.14c.41-.23.63-.5.68-.8.05-.3-.04-.64-.26-1.02l-1.33-2.3-2.22,1.28Z"/>
    </g>
    <g>
      <path class="cls-10" d="M74.09,346.06c-.07-.27-.17-.52-.29-.74-.12-.22-.28-.42-.47-.58-.19-.16-.41-.29-.67-.38-.25-.09-.55-.14-.89-.14-.49,0-.92.1-1.28.3s-.65.47-.88.8c-.23.33-.39.71-.5,1.14-.11.42-.16.86-.16,1.3s.05.88.16,1.3.28.8.5,1.14c.22.33.52.6.88.8.36.2.79.3,1.28.3.36,0,.68-.06.96-.19.28-.12.52-.3.71-.52s.36-.48.47-.77.19-.61.22-.95h1.59c-.03.55-.15,1.06-.36,1.52-.2.46-.48.86-.83,1.19-.35.33-.75.59-1.22.77-.47.18-.98.27-1.55.27-.69,0-1.32-.13-1.87-.38-.55-.26-1.02-.6-1.4-1.05-.38-.44-.67-.96-.88-1.55-.2-.59-.31-1.22-.31-1.88s.1-1.28.31-1.87c.2-.59.5-1.11.88-1.55.38-.44.85-.79,1.4-1.05.55-.26,1.17-.39,1.87-.39.52,0,1.01.07,1.47.21.46.14.86.35,1.21.62.35.27.63.6.85.99s.35.84.4,1.34h-1.62Z"/>
      <path class="cls-10" d="M80.02,343.11h1.73l3.58,9.28h-1.74l-.87-2.46h-3.71l-.87,2.46h-1.68l3.56-9.28ZM79.45,348.7h2.83l-1.39-3.99h-.04l-1.4,3.99Z"/>
      <path class="cls-10" d="M86.53,343.11h4.43c1.02,0,1.79.22,2.3.66.51.44.77,1.06.77,1.85,0,.44-.07.81-.2,1.1-.13.29-.28.52-.46.7-.17.18-.34.31-.51.38s-.29.13-.37.16v.03c.14.02.29.06.45.13s.31.18.45.33.25.35.34.59c.09.24.14.55.14.91,0,.55.04,1.04.12,1.49.08.45.21.76.38.96h-1.74c-.12-.2-.19-.42-.21-.66-.02-.24-.03-.48-.03-.7,0-.42-.03-.79-.08-1.1-.05-.31-.15-.56-.29-.77-.14-.2-.33-.35-.57-.45-.24-.1-.54-.14-.92-.14h-2.39v3.82h-1.62v-9.28ZM88.16,347.34h2.67c.52,0,.91-.12,1.18-.37s.4-.62.4-1.11c0-.29-.04-.54-.13-.72-.09-.19-.21-.33-.36-.44-.15-.1-.33-.17-.52-.21-.2-.03-.4-.05-.6-.05h-2.64v2.9Z"/>
      <path class="cls-10" d="M95.94,343.11h1.72l4.24,6.84h.03v-6.84h1.55v9.28h-1.72l-4.23-6.83h-.04v6.83h-1.55v-9.28Z"/>
      <path class="cls-10" d="M105.72,343.11h6.68v1.4h-5.06v2.43h4.68v1.33h-4.68v2.72h5.15v1.4h-6.77v-9.28Z"/>
      <path class="cls-10" d="M122.33,352.39h-1.04l-.25-1.09c-.43.49-.87.84-1.3,1.03-.43.19-.93.29-1.5.29-.69,0-1.32-.13-1.87-.38-.55-.26-1.02-.6-1.4-1.05-.38-.44-.67-.96-.88-1.55-.2-.59-.31-1.22-.31-1.88s.1-1.28.31-1.87c.2-.59.5-1.11.88-1.55.38-.44.85-.79,1.4-1.05.55-.26,1.17-.39,1.87-.39.5,0,.98.07,1.44.2.46.13.86.33,1.22.6.36.26.65.6.88.99s.38.86.44,1.38h-1.59c-.04-.3-.14-.57-.28-.8-.14-.23-.32-.42-.54-.58s-.46-.27-.73-.35c-.27-.08-.55-.12-.84-.12-.49,0-.92.1-1.28.3s-.65.47-.88.8c-.23.33-.39.71-.5,1.14-.11.42-.16.86-.16,1.3s.05.88.16,1.3.27.8.5,1.14c.23.33.52.6.88.8.36.2.79.3,1.28.3.42,0,.78-.04,1.11-.16.32-.12.59-.29.81-.51.22-.22.39-.49.5-.81s.17-.68.18-1.07h-2.47v-1.23h3.95v4.89Z"/>
      <path class="cls-10" d="M124.43,343.11h1.62v9.28h-1.62v-9.28Z"/>
      <path class="cls-10" d="M128.37,343.11h6.68v1.4h-5.06v2.43h4.68v1.33h-4.68v2.72h5.15v1.4h-6.77v-9.28Z"/>
      <path class="cls-10" d="M140.79,343.11h2.29l2.56,7.27h.03l2.5-7.27h2.26v9.28h-1.55v-7.16h-.03l-2.57,7.16h-1.34l-2.57-7.16h-.03v7.16h-1.55v-9.28Z"/>
      <path class="cls-10" d="M152.7,343.11h6.68v1.4h-5.06v2.43h4.68v1.33h-4.68v2.72h5.15v1.4h-6.77v-9.28Z"/>
      <path class="cls-10" d="M161.22,343.11h1.62v7.88h4.72v1.4h-6.34v-9.28Z"/>
      <path class="cls-10" d="M169,343.11h1.62v7.88h4.72v1.4h-6.34v-9.28Z"/>
      <path class="cls-10" d="M180.74,342.89c.69,0,1.31.13,1.87.39.55.26,1.02.61,1.4,1.05.38.44.67.96.88,1.55.2.59.31,1.21.31,1.87s-.1,1.29-.31,1.88c-.2.59-.5,1.1-.88,1.55-.38.44-.85.79-1.4,1.05-.55.25-1.17.38-1.87.38s-1.32-.13-1.87-.38c-.55-.26-1.02-.6-1.4-1.05-.38-.44-.67-.96-.88-1.55-.2-.59-.31-1.22-.31-1.88s.1-1.28.31-1.87c.2-.59.5-1.11.88-1.55.38-.44.85-.79,1.4-1.05.55-.26,1.17-.39,1.87-.39ZM180.74,344.22c-.49,0-.92.1-1.28.3s-.65.47-.88.8c-.23.33-.39.71-.5,1.14-.11.42-.16.86-.16,1.3s.05.88.16,1.3.28.8.5,1.14c.22.33.52.6.88.8.36.2.79.3,1.28.3s.92-.1,1.28-.3c.36-.2.65-.47.88-.8.23-.33.39-.71.5-1.14s.16-.86.16-1.3-.05-.88-.16-1.3c-.11-.42-.28-.8-.5-1.14-.23-.33-.52-.6-.88-.8-.36-.2-.79-.3-1.28-.3Z"/>
      <path class="cls-10" d="M186.93,343.11h1.72l4.24,6.84h.03v-6.84h1.55v9.28h-1.72l-4.23-6.83h-.04v6.83h-1.55v-9.28Z"/>
      <path class="cls-10" d="M200.54,343.11h1.62v5.41c0,.31.02.63.05.95s.12.61.26.86.36.47.65.63c.29.16.7.25,1.23.25s.94-.08,1.23-.25c.29-.17.51-.38.65-.63.14-.26.23-.54.26-.86s.05-.64.05-.95v-5.41h1.62v5.94c0,.6-.09,1.12-.27,1.56-.18.44-.44.81-.77,1.11-.33.3-.73.52-1.2.67s-.99.22-1.56.22-1.09-.07-1.56-.22-.87-.37-1.2-.67c-.33-.3-.59-.67-.77-1.11-.18-.44-.27-.96-.27-1.56v-5.94Z"/>
      <path class="cls-10" d="M210.29,343.11h1.72l4.24,6.84h.03v-6.84h1.55v9.28h-1.72l-4.23-6.83h-.04v6.83h-1.55v-9.28Z"/>
      <path class="cls-10" d="M220.07,343.11h1.62v9.28h-1.62v-9.28Z"/>
      <path class="cls-10" d="M222.95,343.11h1.69l2.33,7.35h.03l2.38-7.35h1.65l-3.17,9.28h-1.81l-3.09-9.28Z"/>
      <path class="cls-10" d="M232.27,343.11h6.68v1.4h-5.06v2.43h4.68v1.33h-4.68v2.72h5.15v1.4h-6.77v-9.28Z"/>
      <path class="cls-10" d="M240.79,343.11h4.43c1.02,0,1.79.22,2.3.66.51.44.77,1.06.77,1.85,0,.44-.07.81-.2,1.1-.13.29-.28.52-.46.7-.17.18-.34.31-.51.38s-.29.13-.37.16v.03c.14.02.29.06.45.13s.31.18.45.33.25.35.34.59c.09.24.14.55.14.91,0,.55.04,1.04.12,1.49.08.45.21.76.38.96h-1.74c-.12-.2-.19-.42-.21-.66-.02-.24-.03-.48-.03-.7,0-.42-.03-.79-.08-1.1-.05-.31-.15-.56-.29-.77-.14-.2-.33-.35-.57-.45-.24-.1-.54-.14-.92-.14h-2.39v3.82h-1.62v-9.28ZM242.41,347.34h2.67c.52,0,.91-.12,1.18-.37s.4-.62.4-1.11c0-.29-.04-.54-.13-.72-.09-.19-.21-.33-.36-.44-.15-.1-.33-.17-.52-.21-.2-.03-.4-.05-.6-.05h-2.64v2.9Z"/>
      <path class="cls-10" d="M251.33,349.3c0,.36.06.66.18.91.12.25.29.46.51.62s.47.28.75.35c.28.07.59.11.92.11.36,0,.66-.04.91-.12.25-.08.46-.19.61-.32.16-.13.27-.28.34-.45s.1-.34.1-.51c0-.36-.08-.62-.24-.79-.16-.17-.34-.29-.53-.36-.33-.12-.71-.24-1.15-.34s-.98-.25-1.62-.42c-.4-.1-.73-.24-.99-.41-.26-.17-.47-.36-.63-.57s-.27-.43-.33-.66c-.07-.23-.1-.47-.1-.72,0-.47.1-.87.29-1.21.2-.34.45-.63.77-.85.32-.23.68-.39,1.09-.5.41-.11.82-.16,1.23-.16.49,0,.94.06,1.37.19.43.13.81.31,1.13.57.33.25.58.56.77.93.19.37.29.79.29,1.28h-1.62c-.04-.6-.25-1.02-.61-1.27s-.83-.37-1.39-.37c-.19,0-.39.02-.58.06-.2.04-.38.1-.55.19-.16.09-.3.21-.41.37-.11.16-.16.35-.16.58,0,.33.1.59.31.77.2.19.47.33.8.42.04,0,.17.05.41.11.24.06.5.14.8.21s.58.15.87.23c.28.07.48.13.6.16.3.09.57.23.79.39.22.17.41.35.57.57.15.21.26.44.34.68.07.24.11.49.11.73,0,.52-.11.96-.32,1.33-.21.37-.49.67-.84.9s-.74.41-1.18.51c-.44.11-.89.16-1.35.16-.53,0-1.03-.06-1.5-.19-.47-.13-.88-.33-1.22-.6s-.62-.61-.83-1.03c-.21-.42-.32-.92-.33-1.49h1.62Z"/>
      <path class="cls-10" d="M259.01,343.11h1.62v9.28h-1.62v-9.28Z"/>
      <path class="cls-10" d="M262.07,343.11h7.51v1.4h-2.95v7.88h-1.62v-7.88h-2.94v-1.4Z"/>
      <path class="cls-10" d="M273.41,348.75l-3.48-5.64h1.88l2.46,4.16,2.42-4.16h1.82l-3.47,5.64v3.64h-1.62v-3.64Z"/>
    </g>
    <g id="argus">
      <g>
        <path class="cls-10" d="M67.57,314.05v-24.15l-30,24.15h-14.78v-42.39c0-9.82,7.99-17.81,17.81-17.81h42.39v60.21h-15.43ZM46.18,269.27c-4.39,0-7.96,3.57-7.96,7.96l-.08,19.98,29.43-24.23v-3.72h-21.39Z"/>
        <path class="cls-11" d="M82,254.85v58.21h-13.43v-25.24l-31.35,25.24h-13.43v-41.39c0-9.29,7.53-16.81,16.81-16.81h41.39M37.14,299.34l31.44-25.88v-5.18h0s-22.39-.01-22.39-.01c-4.95,0-8.96,4.01-8.96,8.96l-.08,22.11M84,252.85h-43.39c-5.03,0-9.75,1.96-13.3,5.51-3.55,3.55-5.51,8.28-5.51,13.3v43.39h16.13l.55-.44,28.1-22.62v23.06h17.43v-62.21h0ZM39.15,295.09l.07-17.85c0-3.85,3.12-6.97,6.96-6.97h20.39v2.24l-27.42,22.57h0Z"/>
      </g>
      <g>
        <path class="cls-10" d="M220.2,314.05c-8.86,0-16.07-6.98-16.07-15.56v-46.27l15.35,1.7v41.63c0,1.99,1.69,3.6,3.77,3.6h25.39v-41.51l15.35,2.81v53.61h-43.8Z"/>
        <path class="cls-11" d="M205.12,253.34l13.35,1.48v40.73c0,2.55,2.14,4.6,4.77,4.6h26.39v-41.31l13.35,2.44v51.77h-42.8c-8.32,0-15.07-6.52-15.07-14.56v-45.16M203.12,251.1v47.39c0,9.13,7.66,16.56,17.07,16.56h44.79v-2s.01-51.77.01-51.77v-1.67s-1.64-.3-1.64-.3l-13.35-2.44-2.36-.43v41.71h-24.39c-1.53,0-2.77-1.17-2.77-2.6v-42.53l-1.78-.2-13.35-1.48-2.22-.25h0Z"/>
      </g>
      <g>
        <path class="cls-10" d="M85.65,314.07l-.03-60.2h15.47v5.49c23.3-6.54,45.34-7.47,45.57-7.48l3.54-.14-22.11,14.78-.23.03c-.12.02-12.29,1.69-24.14,6.97-2.21.99-2.54,3.56-2.54,5.01l-.12,35.54h-15.4Z"/>
        <path class="cls-11" d="M146.69,252.88l-18.97,12.68s-12.29,1.65-24.41,7.04c-2.32,1.04-3.13,3.49-3.13,5.92l-.12,34.54h-13.41l-.03-58.2h13.47v5.81h.02c23.92-6.91,46.58-7.8,46.58-7.8M153.69,250.6l-7.08.28c-.22,0-21.58.91-44.53,7.16v-5.17h-17.47v2s.03,58.2.03,58.2v2h17.4v-1.99s.12-34.54.12-34.54c0-1.21.25-3.34,1.95-4.1,11.7-5.21,23.74-6.87,23.86-6.89l.46-.06.39-.26,18.97-12.68,5.89-3.94h0Z"/>
      </g>
      <g>
        <path class="cls-10" d="M164.94,331.56c-2.17,0-4.29-.75-5.98-2.1l-29.46-23.65-.83-16.27,34.96,27.47s.07.04.1.04c.04,0,.18-.03.18-.17v-18.47l-36.67-28.57,27.62-18.63c2.98-2.01,6.46-3.07,10.05-3.07s7.07,1.06,10.05,3.07l26.92,18.15v1.53h-.05s-1.58,35.14-1.58,35.14l-29.35,23.44c-1.68,1.35-3.8,2.09-5.96,2.09ZM159.43,280.94c1.61,1.23,3.53,1.89,5.56,1.89,2.02,0,3.94-.65,5.55-1.88l.27-.21h0l13.91-10.78-14.49-9.81c-1.62-1.11-3.5-1.69-5.46-1.69s-3.84.58-5.45,1.69l-14.26,9.79,14.36,11.01Z"/>
        <path class="cls-11" d="M164.91,249.14c3.31,0,6.62.97,9.49,2.9l26.48,17.85h0s-.01.01-.01.01l-1.6,35.63-28.99,23.16c-1.56,1.25-3.45,1.87-5.33,1.87s-3.79-.63-5.36-1.88l-29.11-23.36-.69-13.63,33.23,26.11c.22.18.47.26.72.26.6,0,1.18-.48,1.18-1.17v-18.96l-35.96-28.02,26.48-17.86c2.87-1.93,6.18-2.9,9.49-2.9M164.99,283.83c2.17,0,4.34-.69,6.16-2.08h.01l15.27-11.83-15.63-10.59c-1.81-1.24-3.92-1.86-6.02-1.86s-4.2.62-6.02,1.86l-15.4,10.57,15.45,11.84c1.82,1.4,4,2.09,6.17,2.09M164.91,247.14c-3.8,0-7.47,1.12-10.61,3.24l-26.48,17.86-2.29,1.54,2.17,1.69,35.19,27.42v16.27l-31.89-25.06-3.46-2.72.22,4.39.69,13.63.05.9.7.56,29.11,23.36c1.87,1.5,4.22,2.32,6.61,2.32s4.73-.82,6.59-2.31l28.99-23.15.71-.57.04-.91,1.52-33.72h.09v-2s.01-1.06.01-1.06l-.88-.61-26.48-17.85c-3.14-2.12-6.81-3.24-10.61-3.24h0ZM146.78,269.98l13.13-9.01c1.44-.99,3.13-1.51,4.89-1.51s3.44.52,4.89,1.51l13.35,9.05-12.78,9.9-.31.23c-1.43,1.09-3.14,1.67-4.94,1.67s-3.52-.58-4.95-1.68l-13.26-10.17h0Z"/>
      </g>
      <g>
        <path class="cls-10" d="M266.56,314.05v-15.78h40.07l-35.36-22.26c-2.96-1.86-4.72-5.06-4.72-8.56v-7.03c0-3.62,2.95-6.57,6.57-6.57h48.81v14.24h-38.13l35.8,22.43c2.68,1.68,4.27,4.57,4.27,7.72v9.31c0,3.59-2.92,6.5-6.5,6.5h-50.8Z"/>
        <path class="cls-11" d="M320.92,254.85v12.24h-37.36c-.94,0-1.29,1.23-.49,1.73l35.99,22.55c2.37,1.49,3.81,4.08,3.81,6.88v9.31c0,3.04-2.46,5.5-5.5,5.5h-49.8v-13.78h39.29c.93,0,1.29-1.23.5-1.73l-35.55-22.38c-2.65-1.67-4.26-4.58-4.26-7.71v-7.03c0-3.07,2.49-5.57,5.57-5.57h47.81M322.92,252.85h-49.81c-4.17,0-7.57,3.39-7.57,7.57v7.03c0,3.85,1.94,7.37,5.19,9.41l32.43,20.42h-37.61v17.78h51.79c4.15,0,7.51-3.37,7.51-7.5v-9.31c0-3.5-1.77-6.7-4.74-8.57l-32.85-20.58h35.65v-16.24h0Z"/>
      </g>
    </g>
  </g>
</svg>